<svg width="1024" height="1024" viewBox="0 0 1024 1024" fill="none" xmlns="http://www.w3.org/2000/svg">
<circle cx="512" cy="512" r="352" stroke="url(#paint0_linear_0_3)" stroke-width="64"/>
<path d="M255.264 506.946L354.002 605.684L327.196 632.489L228.458 533.752L255.264 506.946ZM397.175 439.088L369.984 466.279C367.541 464.222 364.986 462.695 362.318 461.699C359.683 460.67 356.983 460.22 354.219 460.349C351.455 460.413 348.707 461.104 345.975 462.422C343.21 463.708 340.543 465.636 337.971 468.208C333.472 472.707 330.756 477.609 329.824 482.912C328.924 488.183 329.711 493.663 332.186 499.352C334.693 505.009 338.807 510.698 344.528 516.419C350.571 522.462 356.436 526.721 362.125 529.196C367.814 531.606 373.23 532.297 378.373 531.269C383.483 530.208 388.208 527.508 392.547 523.169C395.022 520.694 396.934 518.171 398.284 515.6C399.602 512.996 400.39 510.377 400.647 507.741C400.904 505.106 400.647 502.502 399.875 499.931C399.104 497.295 397.818 494.756 396.018 492.313L423.403 465.315C427.26 469.815 430.345 475.246 432.659 481.61C434.941 487.942 436.05 494.804 435.986 502.197C435.922 509.525 434.266 517.03 431.02 524.712C427.774 532.394 422.535 539.85 415.303 547.082C406.239 556.146 396.163 562.333 385.074 565.644C374.018 568.922 362.624 568.874 350.892 565.499C339.193 562.092 327.879 554.925 316.951 543.997C305.959 533.004 298.823 521.626 295.545 509.863C292.234 498.067 292.25 486.641 295.593 475.584C298.904 464.495 304.994 454.515 313.865 445.644C320.101 439.409 326.69 434.524 333.632 430.988C340.575 427.453 347.662 425.347 354.894 424.672C362.093 423.965 369.277 424.785 376.444 427.131C383.612 429.477 390.522 433.463 397.175 439.088ZM456.392 367.529C452.92 364.572 449.208 363.271 445.255 363.624C441.334 363.945 437.203 366.276 432.864 370.615C430.1 373.379 428.172 375.982 427.079 378.425C425.986 380.804 425.584 382.973 425.874 384.934C426.163 386.894 427.015 388.614 428.429 390.092C429.554 391.346 430.839 392.214 432.286 392.696C433.732 393.114 435.387 393.162 437.252 392.84C439.084 392.487 441.157 391.764 443.471 390.671C445.785 389.578 448.356 388.1 451.185 386.235L461.02 379.871C467.641 375.565 473.844 372.415 479.63 370.422C485.415 368.429 490.831 367.481 495.877 367.577C500.891 367.642 505.568 368.686 509.907 370.711C514.278 372.704 518.36 375.565 522.153 379.293C528.613 385.818 532.486 392.937 533.772 400.651C535.057 408.365 533.884 416.384 530.252 424.708C526.652 433.001 520.674 441.325 512.317 449.682C503.736 458.264 494.977 464.483 486.042 468.34C477.139 472.165 468.284 473.21 459.477 471.474C450.671 469.674 442.121 464.66 433.829 456.432L459.284 430.976C462.466 433.837 465.761 435.62 469.168 436.328C472.575 437.035 476.03 436.697 479.533 435.315C483.069 433.901 486.54 431.49 489.947 428.083C492.808 425.223 494.849 422.475 496.07 419.839C497.291 417.203 497.773 414.761 497.516 412.511C497.259 410.261 496.343 408.316 494.768 406.677C493.225 405.199 491.41 404.379 489.32 404.218C487.231 403.993 484.66 404.508 481.606 405.761C478.521 406.983 474.744 409.024 470.277 411.884L458.32 419.598C447.681 426.444 437.621 430.172 428.14 430.783C418.658 431.33 410.076 427.73 402.394 419.984C396.095 413.748 392.286 406.597 390.968 398.529C389.65 390.398 390.679 382.009 394.054 373.363C397.461 364.685 403.069 356.441 410.88 348.63C418.851 340.659 427.079 335.099 435.564 331.949C444.049 328.799 452.294 328.076 460.297 329.779C468.3 331.419 475.548 335.452 482.04 341.881L456.392 367.529ZM561.469 398.216L462.732 299.478L533.892 228.318L555.491 249.916L511.136 294.271L528.107 311.242L568.798 270.551L590.396 292.15L549.706 332.841L566.676 349.811L610.838 305.649L632.437 327.248L561.469 398.216ZM527.5 624.518C524.029 621.561 520.317 620.26 516.363 620.613C512.442 620.935 508.312 623.265 503.973 627.604C501.209 630.368 499.28 632.971 498.187 635.414C497.094 637.793 496.693 639.962 496.982 641.923C497.271 643.883 498.123 645.603 499.537 647.081C500.662 648.335 501.948 649.203 503.394 649.685C504.841 650.103 506.496 650.151 508.36 649.83C510.192 649.476 512.265 648.753 514.579 647.66C516.893 646.567 519.465 645.089 522.293 643.225L532.128 636.861C538.75 632.554 544.953 629.404 550.738 627.411C556.524 625.418 561.939 624.47 566.986 624.567C572 624.631 576.676 625.675 581.015 627.7C585.386 629.693 589.468 632.554 593.261 636.282C599.721 642.807 603.594 649.926 604.88 657.64C606.166 665.354 604.993 673.373 601.361 681.698C597.761 689.99 591.783 698.315 583.426 706.671C574.844 715.253 566.086 721.472 557.15 725.329C548.247 729.154 539.392 730.199 530.586 728.463C521.779 726.663 513.229 721.649 504.937 713.421L530.393 687.965C533.575 690.826 536.869 692.61 540.276 693.317C543.683 694.024 547.138 693.686 550.642 692.304C554.177 690.89 557.649 688.479 561.056 685.072C563.916 682.212 565.957 679.464 567.178 676.828C568.4 674.193 568.882 671.75 568.625 669.5C568.368 667.25 567.452 665.306 565.877 663.666C564.334 662.188 562.518 661.368 560.429 661.208C558.34 660.983 555.768 661.497 552.715 662.75C549.629 663.972 545.853 666.013 541.385 668.873L529.429 676.587C518.79 683.433 508.73 687.162 499.248 687.772C489.766 688.319 481.185 684.719 473.503 676.973C467.203 670.737 463.394 663.586 462.077 655.519C460.759 647.387 461.787 638.998 465.162 630.352C468.569 621.674 474.178 613.43 481.988 605.619C489.959 597.648 498.187 592.088 506.673 588.938C515.158 585.788 523.402 585.065 531.405 586.768C539.408 588.408 546.656 592.441 553.149 598.87L527.5 624.518ZM533.84 556.467L567.203 523.105L646.077 556.082L647.234 554.925L614.257 476.05L647.62 442.687L746.358 541.425L720.13 567.652L663.048 510.57L662.276 511.341L696.603 589.637L680.79 605.451L602.108 570.738L601.336 571.509L658.805 628.978L632.578 655.205L533.84 556.467Z" fill="url(#paint1_linear_0_3)"/>
<defs>
<linearGradient id="paint0_linear_0_3" x1="128" y1="128" x2="890.698" y2="901.23" gradientUnits="userSpaceOnUse">
<stop stop-color="#D7481B"/>
<stop offset="1" stop-color="#DFD473"/>
</linearGradient>
<linearGradient id="paint1_linear_0_3" x1="197.354" y1="196.646" x2="828.354" y2="827.646" gradientUnits="userSpaceOnUse">
<stop stop-color="#D7481B"/>
<stop offset="1" stop-color="#DFD473"/>
</linearGradient>
</defs>
</svg>
