<svg width="1024" height="1024" viewBox="0 0 1024 1024" fill="none" xmlns="http://www.w3.org/2000/svg">
<circle cx="512" cy="512" r="376" stroke="url(#paint0_linear_0_3)" stroke-width="16"/>
<path d="M253.808 508.402L352.545 607.14L340.589 619.097L241.851 520.359L253.808 508.402ZM388.09 435.831L376.133 447.788C371.987 445.056 367.728 443.272 363.357 442.436C359.018 441.569 354.711 441.504 350.436 442.244C346.161 442.918 342.063 444.317 338.142 446.438C334.221 448.559 330.621 451.259 327.343 454.538C321.364 460.516 317.459 467.442 315.627 475.317C313.827 483.159 314.438 491.452 317.459 500.194C320.513 508.904 326.314 517.534 334.864 526.084C343.413 534.633 352.043 540.435 360.753 543.488C369.496 546.51 377.788 547.12 385.631 545.32C393.505 543.488 400.432 539.583 406.41 533.605C409.688 530.327 412.388 526.727 414.51 522.805C416.631 518.884 418.045 514.802 418.752 510.56C419.459 506.253 419.379 501.93 418.511 497.591C417.643 493.187 415.86 488.929 413.16 484.815L425.116 472.858C429.262 478.804 432.139 484.959 433.746 491.323C435.353 497.687 435.787 504.035 435.048 510.367C434.277 516.666 432.412 522.741 429.455 528.591C426.53 534.408 422.577 539.808 417.595 544.79C409.174 553.211 399.628 558.643 388.957 561.086C378.287 563.528 367.278 562.837 355.932 559.013C344.586 555.188 333.707 548.068 323.293 537.655C312.879 527.241 305.76 516.361 301.935 505.015C298.11 493.669 297.419 482.661 299.862 471.99C302.305 461.319 307.737 451.773 316.158 443.352C321.139 438.37 326.539 434.417 332.357 431.492C338.206 428.535 344.297 426.687 350.629 425.948C356.929 425.177 363.26 425.594 369.624 427.201C375.956 428.776 382.111 431.653 388.09 435.831ZM455.237 356.342C449.773 352.035 443.634 350.589 436.82 352.003C430.006 353.417 423.61 357.113 417.631 363.092C413.26 367.463 410.142 371.995 408.278 376.687C406.446 381.348 405.852 385.832 406.494 390.139C407.169 394.413 409.082 398.126 412.232 401.276C414.867 403.911 417.76 405.55 420.91 406.193C424.06 406.772 427.258 406.691 430.504 405.952C433.718 405.181 436.82 404.104 439.809 402.722C442.766 401.308 445.401 399.926 447.716 398.576L460.443 391.247C463.69 389.351 467.482 387.423 471.821 385.462C476.193 383.469 480.853 382.055 485.803 381.219C490.753 380.319 495.767 380.512 500.845 381.798C505.923 383.084 510.777 386.041 515.405 390.669C520.74 396.004 524.163 402.224 525.674 409.327C527.217 416.398 526.59 423.871 523.794 431.745C521.03 439.588 515.855 447.302 508.27 454.887C501.199 461.958 493.935 466.94 486.478 469.833C479.053 472.693 471.821 473.561 464.783 472.436C457.776 471.279 451.38 468.194 445.594 463.179L457.936 450.837C461.986 454.244 466.325 456.076 470.954 456.333C475.582 456.526 480.178 455.53 484.742 453.344C489.306 451.094 493.549 448.009 497.47 444.088C502.034 439.524 505.393 434.686 507.546 429.576C509.668 424.433 510.455 419.467 509.909 414.678C509.33 409.857 507.241 405.647 503.641 402.047C500.363 398.768 496.779 397.017 492.89 396.792C489.001 396.567 484.919 397.306 480.644 399.01C476.369 400.713 472.014 402.818 467.579 405.325L451.958 414.003C442.027 419.5 432.754 422.44 424.14 422.826C415.526 423.212 407.893 420.078 401.239 413.425C395.711 407.897 392.384 401.581 391.26 394.478C390.135 387.31 390.97 380.046 393.767 372.686C396.563 365.261 401.111 358.399 407.41 352.099C413.774 345.735 420.572 341.22 427.804 338.552C435.004 335.852 442.01 335.016 448.824 336.045C455.671 337.041 461.665 339.95 466.807 344.771L455.237 356.342ZM561.869 397.816L463.131 299.078L522.721 239.489L533.328 250.095L485.694 297.729L519.057 331.091L563.605 286.543L574.211 297.15L529.664 341.698L563.219 375.253L611.624 326.848L622.23 337.455L561.869 397.816ZM532.112 607.564C526.648 603.257 520.509 601.811 513.695 603.225C506.882 604.639 500.485 608.335 494.507 614.314C490.136 618.685 487.018 623.217 485.154 627.909C483.322 632.57 482.727 637.053 483.37 641.36C484.045 645.635 485.958 649.347 489.107 652.497C491.743 655.133 494.636 656.772 497.786 657.415C500.935 657.993 504.133 657.913 507.38 657.174C510.594 656.402 513.695 655.326 516.685 653.944C519.642 652.529 522.277 651.147 524.591 649.797L537.319 642.469C540.566 640.573 544.358 638.644 548.697 636.684C553.068 634.691 557.729 633.277 562.679 632.441C567.628 631.541 572.642 631.734 577.721 633.02C582.799 634.305 587.652 637.262 592.281 641.891C597.616 647.226 601.039 653.445 602.55 660.549C604.093 667.62 603.466 675.093 600.67 682.967C597.905 690.81 592.731 698.524 585.145 706.109C578.074 713.18 570.81 718.162 563.354 721.054C555.929 723.915 548.697 724.783 541.658 723.658C534.652 722.501 528.255 719.415 522.47 714.401L534.812 702.059C538.862 705.466 543.201 707.298 547.829 707.555C552.458 707.748 557.054 706.752 561.618 704.566C566.182 702.316 570.425 699.231 574.346 695.309C578.91 690.745 582.269 685.908 584.422 680.798C586.544 675.655 587.331 670.689 586.785 665.9C586.206 661.079 584.117 656.868 580.517 653.269C577.239 649.99 573.655 648.239 569.766 648.014C565.877 647.789 561.795 648.528 557.52 650.231C553.245 651.935 548.89 654.04 544.455 656.547L528.834 665.225C518.902 670.721 509.63 673.662 501.016 674.048C492.402 674.434 484.768 671.3 478.115 664.647C472.587 659.118 469.26 652.803 468.135 645.699C467.01 638.532 467.846 631.268 470.642 623.908C473.439 616.483 477.987 609.621 484.286 603.321C490.65 596.957 497.448 592.441 504.68 589.774C511.879 587.074 518.886 586.238 525.7 587.267C532.546 588.263 538.541 591.172 543.683 595.993L532.112 607.564ZM540.007 550.3L554.278 536.03L669.793 584.434L670.95 583.277L622.546 467.762L636.816 453.491L735.554 552.229L724.369 563.414L649.351 488.396L648.387 489.361L692.549 595.234L681.75 606.033L575.877 561.871L574.912 562.835L649.93 637.853L638.745 649.038L540.007 550.3Z" fill="url(#paint1_linear_0_3)"/>
<defs>
<linearGradient id="paint0_linear_0_3" x1="128" y1="128" x2="890.698" y2="901.23" gradientUnits="userSpaceOnUse">
<stop stop-color="#D7481B"/>
<stop offset="1" stop-color="#DFD473"/>
</linearGradient>
<linearGradient id="paint1_linear_0_3" x1="197" y1="197" x2="828" y2="828" gradientUnits="userSpaceOnUse">
<stop stop-color="#D7481B"/>
<stop offset="1" stop-color="#DFD473"/>
</linearGradient>
</defs>
</svg>
